<svg width="28" height="28" viewBox="0 0 28 28" fill="none" xmlns="http://www.w3.org/2000/svg">
<path d="M20.5099 11.3285C19.9227 11.1687 19.3048 11.0833 18.6668 11.0833C15.7114 11.0833 13.1837 12.9149 12.1571 15.5048M20.5099 11.3285C23.4818 12.1375 25.6668 14.8553 25.6668 18.0833C25.6668 21.9493 22.5328 25.0833 18.6668 25.0833C16.874 25.0833 15.2386 24.4093 14.0002 23.3009M20.5099 11.3285C20.8263 10.5305 21.0002 9.66058 21.0002 8.75C21.0002 4.884 17.8661 1.75 14.0002 1.75C10.1342 1.75 7.00016 4.884 7.00016 8.75C7.00016 9.66058 7.17403 10.5305 7.49037 11.3285M12.1571 15.5048C11.8407 16.3028 11.6668 17.1727 11.6668 18.0833C11.6668 20.1565 12.5681 22.0192 14.0002 23.3009M12.1571 15.5048C10.0235 14.924 8.2955 13.3595 7.49037 11.3285M14.0002 23.3009C12.7617 24.4093 11.1263 25.0833 9.3335 25.0833C5.4675 25.0833 2.3335 21.9493 2.3335 18.0833C2.3335 14.8553 4.51859 12.1375 7.49037 11.3285" stroke="white" stroke-width="2" stroke-linecap="round"/>
</svg>
