<svg width="28" height="28" viewBox="0 0 28 28" fill="none" xmlns="http://www.w3.org/2000/svg">
<path d="M16.3332 18.6666C17.4113 18.6666 18.2854 18.0696 18.2854 17.3332C18.2854 15.9092 18.3012 15.3225 19.5473 14.4714C19.9285 14.211 19.9285 13.7889 19.5473 13.5285C18.3012 12.6774 18.2854 12.0907 18.2854 10.6666C18.2854 9.9302 17.4113 9.33325 16.3332 9.33325M11.6665 18.6666C10.5884 18.6666 9.71435 18.0696 9.71435 17.3332C9.71435 15.9092 9.69848 15.3225 8.45239 14.4714C8.07121 14.211 8.07121 13.7889 8.45238 13.5285C9.69848 12.6774 9.71435 12.0907 9.71435 10.6666C9.71435 9.9302 10.5884 9.33325 11.6665 9.33325" stroke="white" stroke-width="2" stroke-linecap="round" stroke-linejoin="round"/>
<path d="M2.9165 14.0001C2.9165 8.77535 2.9165 6.16299 4.53962 4.53986C6.16274 2.91675 8.77511 2.91675 13.9998 2.91675C19.2245 2.91675 21.8369 2.91675 23.4601 4.53986C25.0832 6.16299 25.0832 8.77535 25.0832 14.0001C25.0832 19.2248 25.0832 21.8372 23.4601 23.4604C21.8369 25.0834 19.2245 25.0834 13.9998 25.0834C8.77511 25.0834 6.16274 25.0834 4.53962 23.4604C2.9165 21.8372 2.9165 19.2248 2.9165 14.0001Z" stroke="white" stroke-width="2" stroke-linejoin="round"/>
</svg>
