<svg width="28" height="28" viewBox="0 0 28 28" fill="none" xmlns="http://www.w3.org/2000/svg">
<path d="M13.4168 23.3334H11.6668C7.26705 23.3334 5.06717 23.3334 3.70033 21.9666C2.3335 20.5998 2.3335 18.3998 2.3335 14.0001C2.3335 9.6003 2.3335 7.40042 3.70033 6.03358C5.06717 4.66675 7.26705 4.66675 11.6668 4.66675H16.3335C20.7332 4.66675 22.9332 4.66675 24.3 6.03358C25.605 7.33862 25.664 9.40311 25.6667 13.4167" stroke="white" stroke-width="2" stroke-linecap="round" stroke-linejoin="round"/>
<path d="M23.9168 16.3333H18.0835C17.117 16.3333 16.3335 17.1168 16.3335 18.0833V21.5833C16.3335 22.5497 17.117 23.3333 18.0835 23.3333H23.9168C24.8833 23.3333 25.6668 22.5497 25.6668 21.5833V18.0833C25.6668 17.1168 24.8833 16.3333 23.9168 16.3333Z" stroke="white" stroke-width="2"/>
</svg>
