<svg width="28" height="28" viewBox="0 0 28 28" fill="none" xmlns="http://www.w3.org/2000/svg">
<path d="M14.0002 24.2117V9.88232M17.2943 21.7411C16.6467 22.3408 14.9229 24.7059 14.0002 24.7059C13.0775 24.7059 11.3537 22.3408 10.7061 21.7411" stroke="white" stroke-width="2" stroke-linecap="round" stroke-linejoin="round"/>
<path d="M23.605 13.4167C24.9795 14.0724 25.6668 14.514 25.6668 15.1669C25.6668 15.9757 24.6119 16.4602 22.502 17.4295L18.5386 19.2501M4.39531 13.4167C3.02077 14.0724 2.3335 14.514 2.3335 15.1669C2.3335 15.9757 3.38843 16.4602 5.49831 17.4295L9.46171 19.2501" stroke="white" stroke-width="2" stroke-linecap="round" stroke-linejoin="round"/>
<path d="M9.46197 12.2499L5.49831 10.4292C3.38843 9.45999 2.3335 8.97539 2.3335 8.16658C2.3335 7.35778 3.38843 6.87318 5.49831 5.904L11.2068 3.28173C12.5834 2.64941 13.2716 2.33325 14.0002 2.33325C14.7287 2.33325 15.417 2.64941 16.7935 3.28173L22.502 5.904C24.6119 6.87318 25.6668 7.35778 25.6668 8.16658C25.6668 8.97539 24.6119 9.45999 22.502 10.4292L18.5384 12.2499" stroke="white" stroke-width="2" stroke-linecap="round" stroke-linejoin="round"/>
</svg>
