<svg width="28" height="28" viewBox="0 0 28 28" fill="none" xmlns="http://www.w3.org/2000/svg">
<path d="M11.7532 14.9072L14.2596 12.4008C14.6012 12.0592 14.772 11.8884 14.9563 11.7971C15.3069 11.6233 15.7185 11.6233 16.0692 11.7971C16.2534 11.8884 16.4243 12.0592 16.7659 12.4008C17.1076 12.7425 17.2784 12.9133 17.3697 13.0975C17.5434 13.4482 17.5434 13.8598 17.3697 14.2104C17.2784 14.3948 17.1076 14.5656 16.7659 14.9072L14.2596 17.4135M11.7532 14.9072L4.23407 22.4263C3.89247 22.7679 3.72167 22.9387 3.63032 23.1231C3.4566 23.4736 3.4566 23.8852 3.63032 24.2359C3.72167 24.4202 3.89247 24.591 4.23407 24.9327C4.57578 25.2743 4.74658 25.4451 4.9308 25.5364C5.2815 25.7101 5.6931 25.7101 6.04368 25.5364C6.22802 25.4451 6.39882 25.2743 6.74042 24.9327L14.2596 17.4135M11.7532 14.9072L14.2596 17.4135" stroke="white" stroke-width="2" stroke-linecap="round" stroke-linejoin="round"/>
<path d="M8.16683 2.33325L7.8229 3.26262C7.37198 4.48128 7.14646 5.09061 6.70196 5.53511C6.25746 5.97961 5.64823 6.20508 4.42953 6.65602L3.50016 6.99992L4.42953 7.34382C5.64823 7.79476 6.25746 8.02024 6.70196 8.46473C7.14646 8.90923 7.37198 9.51855 7.8229 10.7372L8.16683 11.6666L8.51076 10.7372C8.96168 9.51857 9.1872 8.90923 9.6317 8.46473C10.0762 8.02023 10.6854 7.79476 11.9041 7.34382L12.8335 6.99992L11.9041 6.65602C10.6854 6.20508 10.0762 5.97961 9.6317 5.53511C9.1872 5.09061 8.96168 4.48128 8.51076 3.26262L8.16683 2.33325Z" stroke="white" stroke-width="1.5" stroke-linejoin="round"/>
<path d="M21 4.66675L20.7421 5.36377C20.4039 6.27776 20.2348 6.73477 19.9014 7.06814C19.568 7.40151 19.111 7.57062 18.197 7.90882L17.5 8.16675L18.197 8.42467C19.111 8.76288 19.568 8.93199 19.9014 9.26536C20.2348 9.59873 20.4039 10.0557 20.7421 10.9697L21 11.6667L21.2579 10.9697C21.5961 10.0557 21.7652 9.59873 22.0986 9.26536C22.432 8.93199 22.889 8.76288 23.803 8.42467L24.5 8.16675L23.803 7.90882C22.889 7.57062 22.432 7.40151 22.0986 7.06813C21.7652 6.73477 21.5961 6.27776 21.2579 5.36377L21 4.66675Z" stroke="white" stroke-width="1.5" stroke-linejoin="round"/>
</svg>
