<svg width="28" height="28" viewBox="0 0 28 28" fill="none" xmlns="http://www.w3.org/2000/svg">
<path d="M10.6565 2.91675C7.5459 2.98762 5.72899 3.28373 4.48758 4.52083C3.4011 5.60355 3.03791 7.12557 2.9165 9.56675M17.3432 2.91675C20.4538 2.98762 22.2707 3.28373 23.5121 4.52083C24.5985 5.60355 24.9617 7.12557 25.0832 9.56675M17.3432 25.0834C20.4538 25.0125 22.2707 24.7164 23.5121 23.4794C24.5985 22.3966 24.9617 20.8746 25.0832 18.4334M10.6565 25.0834C7.5459 25.0125 5.72899 24.7164 4.48758 23.4794C3.4011 22.3966 3.03791 20.8746 2.9165 18.4334" stroke="white" stroke-width="2" stroke-linecap="round" stroke-linejoin="round"/>
<path d="M21 13.9999C21 13.9999 18.9 18.6666 14 18.6666C9.1 18.6666 7 13.9999 7 13.9999C7 13.9999 9.1 9.33325 14 9.33325C18.55 9.33325 21 13.9999 21 13.9999Z" stroke="white" stroke-width="2" stroke-linejoin="round"/>
<path d="M13.7844 11.785C13.8848 11.6273 14.1149 11.6273 14.2152 11.785L14.5056 12.2411C14.8266 12.7456 15.2544 13.1734 15.7588 13.4944L16.2149 13.7847C16.3726 13.885 16.3726 14.1152 16.2149 14.2155L15.7588 14.5058C15.2544 14.8268 14.8266 15.2546 14.5056 15.759L14.2152 16.2152C14.1149 16.3728 13.8848 16.3728 13.7844 16.2152L13.4941 15.759C13.1731 15.2546 12.7453 14.8268 12.2409 14.5058L11.7848 14.2155C11.6271 14.1152 11.6271 13.885 11.7848 13.7847L12.2409 13.4944C12.7453 13.1734 13.1731 12.7456 13.4941 12.2411L13.7844 11.785Z" stroke="white" stroke-width="2" stroke-linejoin="round"/>
</svg>
