<svg width="28" height="28" viewBox="0 0 28 28" fill="none" xmlns="http://www.w3.org/2000/svg">
<path d="M10.6565 2.91675C7.5459 2.98762 5.72899 3.28373 4.48758 4.52083C3.4011 5.60355 3.03791 7.12557 2.9165 9.56675M17.3432 2.91675C20.4538 2.98762 22.2707 3.28373 23.5121 4.52083C24.5985 5.60355 24.9617 7.12557 25.0832 9.56675M17.3432 25.0834C20.4538 25.0125 22.2707 24.7164 23.5121 23.4794C24.5985 22.3966 24.9617 20.8746 25.0832 18.4334M10.6565 25.0834C7.5459 25.0125 5.72899 24.7164 4.48758 23.4794C3.4011 22.3966 3.03791 20.8746 2.9165 18.4334" stroke="white" stroke-width="2" stroke-linecap="round" stroke-linejoin="round"/>
<path d="M18.6668 13.9999C18.6668 16.5772 16.5774 18.6666 14.0002 18.6666C11.4228 18.6666 9.3335 16.5772 9.3335 13.9999C9.3335 11.4226 11.4228 9.33325 14.0002 9.33325C16.5774 9.33325 18.6668 11.4226 18.6668 13.9999Z" stroke="white" stroke-width="2" stroke-linecap="round" stroke-linejoin="round"/>
</svg>
