<svg width="28" height="28" viewBox="0 0 28 28" fill="none" xmlns="http://www.w3.org/2000/svg">
<path d="M15.1667 3.5H12.8333C8.43355 3.5 6.23367 3.5 4.86683 4.86683C3.5 6.23367 3.5 8.43355 3.5 12.8333V15.1667C3.5 19.5664 3.5 21.7664 4.86683 23.1331C6.23367 24.5 8.43355 24.5 12.8333 24.5H15.1667C19.5664 24.5 21.7664 24.5 23.1331 23.1331C24.5 21.7664 24.5 19.5664 24.5 15.1667V12.8333C24.5 8.43355 24.5 6.23367 23.1331 4.86683C21.7664 3.5 19.5664 3.5 15.1667 3.5Z" stroke="white" stroke-width="2" stroke-linecap="round" stroke-linejoin="round"/>
<path d="M10.5 3.5V24.5" stroke="white" stroke-width="2" stroke-linecap="round" stroke-linejoin="round"/>
<path d="M17.5 3.5V24.5" stroke="white" stroke-width="2" stroke-linecap="round" stroke-linejoin="round"/>
<path d="M24.5 10.5H3.5" stroke="white" stroke-width="2" stroke-linecap="round" stroke-linejoin="round"/>
<path d="M24.5 17.5H3.5" stroke="white" stroke-width="2" stroke-linecap="round" stroke-linejoin="round"/>
</svg>
