<svg width="28" height="28" viewBox="0 0 28 28" fill="none" xmlns="http://www.w3.org/2000/svg">
<path d="M3.5 16.3333V11.0833C3.5 10.1168 4.2835 9.33333 5.25 9.33333C6.2165 9.33333 7 10.1168 7 11.0833V19.25C7 20.2165 7.7835 21 8.75 21C9.7165 21 10.5 20.2165 10.5 19.25V5.25C10.5 4.2835 11.2835 3.5 12.25 3.5C13.2165 3.5 14 4.2835 14 5.25V22.75C14 23.7165 14.7835 24.5 15.75 24.5C16.7165 24.5 17.5 23.7165 17.5 22.75V9.91667C17.5 8.95016 18.2835 8.16667 19.25 8.16667C20.2165 8.16667 21 8.95016 21 9.91667V18.0833C21 19.0498 21.7835 19.8333 22.75 19.8333C23.7165 19.8333 24.5 19.0498 24.5 18.0833V14" stroke="white" stroke-width="2" stroke-linecap="round" stroke-linejoin="round"/>
</svg>
